<?xml version="1.0" encoding="UTF-8" standalone="no"?>
<!-- Created with Inkscape (http://www.inkscape.org/) -->

<svg
   width="558.20276"
   height="675.48413"
   viewBox="0 0 147.69114 178.72184"
   version="1.1"
   id="svg5"
   inkscape:version="1.3.2 (091e20e, 2023-11-25)"
   sodipodi:docname="path_random.svg"
   xmlns:inkscape="http://www.inkscape.org/namespaces/inkscape"
   xmlns:sodipodi="http://sodipodi.sourceforge.net/DTD/sodipodi-0.dtd"
   xmlns="http://www.w3.org/2000/svg"
   xmlns:svg="http://www.w3.org/2000/svg">
  <sodipodi:namedview
     id="namedview7"
     pagecolor="#ffffff"
     bordercolor="#666666"
     borderopacity="1.0"
     inkscape:pageshadow="2"
     inkscape:pageopacity="0.0"
     inkscape:pagecheckerboard="0"
     inkscape:document-units="px"
     showgrid="false"
     inkscape:zoom="0.59152637"
     inkscape:cx="284.01101"
     inkscape:cy="428.55232"
     inkscape:window-width="1600"
     inkscape:window-height="863"
     inkscape:window-x="1600"
     inkscape:window-y="0"
     inkscape:window-maximized="1"
     inkscape:current-layer="layer1"
     units="px"
     width="793.70081px"
     fit-margin-top="2"
     fit-margin-left="2"
     fit-margin-right="2"
     fit-margin-bottom="2"
     inkscape:showpageshadow="2"
     inkscape:deskcolor="#d1d1d1" />
  <defs
     id="defs2" />
  <g
     inkscape:label="Layer 1"
     inkscape:groupmode="layer"
     id="layer1"
     transform="translate(-21.482682,-35.188249)">
    <path
       style="color:#000000;fill:#000000;-inkscape-stroke:none"
       d="m 132.59886,102.13226 c -0.78394,0.0466 -1.53409,0.14453 -2.23242,0.14453 -8.73012,0 -16.08789,0.009 -24.3789,4.26563 -0.28983,0.14878 -0.6718,0.41829 -1.26953,0.84375 -0.59773,0.42545 -1.34002,0.97452 -2.08984,1.56054 -0.74982,0.58603 -1.50676,1.20648 -2.13672,1.7832 -0.62997,0.57673 -1.12563,1.06653 -1.412113,1.5879 -1.151829,2.09623 -0.935525,4.71125 -0.476562,7.2207 0.458962,2.50944 1.187905,4.97437 1.306645,6.65625 0.0752,1.06476 -0.002,2.18122 -0.002,3.3418 0,1.19869 0.20708,2.27941 0.0137,3.17968 -0.20689,0.96301 -0.965954,1.93123 -1.398443,3.21094 -0.421176,1.24624 -0.529308,2.64813 -0.814453,3.89453 -0.285145,1.24641 -0.70981,2.28211 -1.640625,2.95117 -3.349939,2.40792 -5.32189,2.66797 -9.224609,2.66797 -1.362289,0 -2.536098,0.37898 -3.324219,0.0508 -0.02574,-0.0107 -0.103316,-0.0718 -0.230469,-0.23632 -0.127152,-0.1645 -0.284786,-0.41456 -0.583984,-0.63868 -1.012659,-0.75856 -2.089233,-1.18988 -2.804687,-1.85547 -1.821924,-1.69492 -3.315641,-3.98788 -5.042969,-6.08398 -1.727328,-2.0961 -3.726719,-4.01696 -6.585938,-4.78906 -0.342817,-0.0926 -0.572908,-0.008 -0.800781,0.0742 -0.227873,0.0821 -0.453677,0.19812 -0.693359,0.33593 -0.479364,0.27562 -1.010124,0.6453 -1.53125,1.03321 -1.042252,0.77581 -2.089662,1.65568 -2.292969,1.80859 -5.436938,4.08919 -12.947879,6.91406 -19.755859,6.91406 -0.344888,0 -0.594874,0.08 -0.75586,0.10352 -0.160986,0.0235 -0.140823,-10e-4 -0.0918,0.0371 -0.122038,-0.0953 -0.169377,-0.18463 -0.207031,-0.3711 -0.03765,-0.18646 -0.03595,-0.458 -0.0059,-0.76757 0.06018,-0.61914 0.293538,-1.35307 -0.02148,-2.14063 -0.406562,-1.0164 -1.113912,-2.7131 -2.003906,-4.29492 -0.889994,-1.58182 -1.899313,-3.08464 -3.269531,-3.67188 -0.688213,-0.29493 -1.300831,-0.0932 -1.679688,-0.0488 -3.617968,0.42336 -4.770984,0.36614 -5.830078,0.68164 -1.059093,0.31549 -1.677214,0.92195 -4.109375,2.52539 l 0.728516,1.10547 c 2.468031,-1.62709 3.036891,-2.14795 3.759765,-2.36328 0.722875,-0.21534 1.94689,-0.20665 5.605469,-0.63477 0.509659,-0.0597 0.869874,-0.10627 1.003906,-0.0488 0.752728,0.3226 1.800498,1.6138 2.638672,3.10352 0.838175,1.48972 1.529565,3.14129 1.927735,4.13672 0.06316,0.1579 0.0038,0.80144 -0.06641,1.52343 -0.03509,0.361 -0.05694,0.75052 0.02539,1.15821 0.08233,0.40769 0.29815,0.84483 0.689453,1.15039 0.378791,0.29577 0.818099,0.27132 1.097656,0.23047 0.279558,-0.0408 0.490957,-0.0898 0.564454,-0.0898 7.170361,0 14.884469,-2.91847 20.552734,-7.18164 0.351917,-0.26468 1.289187,-1.05992 2.287109,-1.80273 0.498962,-0.37141 1.00135,-0.72091 1.398438,-0.94922 0.198544,-0.11416 0.372337,-0.19861 0.482422,-0.23828 0.110084,-0.0397 0.155846,-0.001 0.0078,-0.041 2.477377,0.66899 4.249029,2.33579 5.910156,4.35156 1.661128,2.01577 3.174969,4.3605 5.164063,6.21094 0.960192,0.89326 2.093048,1.33373 2.912109,1.94727 0.06206,0.0465 0.172978,0.18739 0.330078,0.39062 0.157101,0.20324 0.378591,0.48564 0.769532,0.64844 1.414099,0.58887 2.808783,0.0508 3.832031,0.0508 3.975005,0 6.470064,-0.38543 9.996094,-2.91992 1.303094,-0.93666 1.844155,-2.35577 2.158203,-3.72852 0.314048,-1.37274 0.437705,-2.75487 0.779298,-3.76562 0.33107,-0.97963 1.14346,-1.98876 1.4375,-3.35742 0.27124,-1.26251 0.0156,-2.44359 0.0156,-3.45703 0,-1.09847 0.082,-2.24689 -0.002,-3.43555 -0.13789,-1.95327 -0.88324,-4.38967 -1.32422,-6.80078 -0.440978,-2.41112 -0.550189,-4.73463 0.33398,-6.34375 0.1063,-0.19346 0.55668,-0.71005 1.14649,-1.25 0.5898,-0.53996 1.32665,-1.1467 2.05859,-1.71875 0.73195,-0.57206 1.45999,-1.11182 2.04102,-1.52539 0.58103,-0.41358 1.0865,-0.73341 1.10742,-0.74414 8.01016,-4.11199 15.04606,-4.11914 23.77538,-4.11914 1.60826,0 3.09451,-0.3273 4.34766,-0.0176 3.38119,0.83567 6.58262,2.68539 10.18945,3.63086 2.98027,0.78122 6.01859,0.88091 8.90039,1.36914 3.4189,0.57922 7.75668,1.86328 11.63086,1.86328 v -1.32227 c -3.57497,0 -7.85993,-1.24261 -11.4082,-1.84375 -2.99932,-0.50813 -5.99739,-0.61443 -8.78711,-1.3457 -3.37502,-0.8847 -6.58131,-2.74061 -10.20703,-3.63672 -0.832,-0.20563 -1.64965,-0.21064 -2.4336,-0.16406 z"
       id="path77" />
    <path
       style="color:#000000;fill:#000000;-inkscape-stroke:none"
       d="m 22.457161,86.57468 -0.445313,1.246094 c 16.27899,5.822331 29.978324,16.200816 38.15625,23.146486 -3.644381,-2.30943 -7.783109,-4.72244 -11.43164,-6.08008 -2.118543,-0.78832 -4.042014,-1.24113 -5.646485,-1.03906 -0.802235,0.10103 -1.537425,0.38152 -2.107421,0.90234 -0.569997,0.52083 -0.943733,1.26166 -1.09961,2.16211 -0.311753,1.80091 0.151194,4.27437 1.503906,7.76758 1.352713,3.49321 3.6202,8.00122 7.041016,13.77539 6.816077,11.5052 11.447745,19.58841 14.970703,24.98437 3.522958,5.39596 5.90798,8.19106 8.541016,8.91406 1.316518,0.3615 2.64056,0.12648 3.96875,-0.52539 1.32819,-0.65187 2.703735,-1.70533 4.30664,-3.06836 3.205812,-2.72606 7.321722,-6.71347 13.453125,-11.31054 12.100122,-9.07217 30.775412,-10.70566 46.429692,-9.99414 15.65428,0.71152 28.24023,3.72266 28.24023,3.72266 l 0.30664,-1.28711 c 0,0 -12.69498,-3.04006 -28.48632,-3.75782 -15.79134,-0.71775 -34.72501,0.8422 -47.28321,10.25782 -6.197756,4.64681 -10.371755,8.68628 -13.517578,11.36132 -1.572912,1.33752 -2.889955,2.32852 -4.03125,2.88867 -1.141296,0.56014 -2.065109,0.7044 -3.03711,0.4375 -1.944001,-0.5338 -4.298839,-3.02747 -7.78125,-8.36133 -3.48241,-5.33385 -8.120856,-13.42279 -14.941406,-24.93554 -3.397497,-5.7348 -5.636149,-10.19233 -6.947266,-13.57812 -1.311116,-3.38579 -1.66901,-5.70453 -1.433593,-7.06446 0.117708,-0.67996 0.360017,-1.11109 0.689453,-1.41211 0.329436,-0.30101 0.775751,-0.49019 1.380859,-0.5664 1.210216,-0.15242 2.999357,0.21508 5.019531,0.9668 8.080697,3.00687 19.794922,11.82226 19.794922,11.82226 l 0.871094,-0.99219 c 0,0 -20.79974,-21.196464 -46.484375,-30.38281 z"
       id="path42" />
    <path
       style="color:#000000;fill:#000000;-inkscape-stroke:none"
       d="m 30.496226,123.88706 v 1.32422 H 160.16028 v -1.32422 z"
       id="path112" />
    <path
       style="color:#000000;fill:#000000;fill-rule:evenodd;stroke-width:0.264583;-inkscape-stroke:none"
       d="m 94.107294,113.46529 c -3.139954,0.20544 -6.189107,1.59023 -8.348845,4.17029 -3.862154,4.61379 -3.499004,11.78547 1.23145,15.68896 4.178936,3.44839 10.646773,3.10197 14.133501,-1.19993 3.03447,-3.7439 2.70445,-9.51022 -1.170467,-12.57907 -3.308649,-2.62038 -8.374862,-2.30568 -11.024134,1.14463 -2.206047,2.87307 -1.906525,7.24282 1.122928,9.4697 2.437053,1.79144 6.115844,1.50507 7.91528,-1.11 1.37654,-2.0005 1.102209,-5.0006 -1.111043,-6.36189 -0.781916,-0.48093 -1.72588,-0.64837 -2.615862,-0.48059 -0.889981,0.16778 -1.74706,0.70929 -2.194181,1.62936 -0.276126,0.5682 -0.334351,1.22812 -0.156063,1.85311 0.178287,0.625 0.687931,1.24712 1.459342,1.39837 0.50993,0.1 0.859071,-0.0447 1.225248,-0.31936 0.183089,-0.13732 0.38504,-0.34222 0.447519,-0.67851 0.06248,-0.3363 -0.103722,-0.7106 -0.331248,-0.92708 l -0.912087,0.95808 c 0.0122,0.0116 -0.08146,-0.13986 -0.05685,-0.27233 0.02461,-0.13248 0.07783,-0.15268 0.05891,-0.13849 -0.03783,0.0284 -0.306837,0.0541 -0.176734,0.0796 -0.257896,-0.0506 -0.361933,-0.18293 -0.441833,-0.46302 -0.0799,-0.2801 -0.04089,-0.6759 0.0739,-0.91209 0.252125,-0.51882 0.69605,-0.80371 1.249019,-0.90796 0.552969,-0.10425 1.194131,0.0104 1.677935,0.30799 1.50173,0.92366 1.69418,3.06078 0.714168,4.485 -1.341479,1.94954 -4.170923,2.16877 -6.041492,0.79375 -2.39125,-1.75776 -2.633465,-5.28547 -0.857829,-7.59799 2.173077,-2.83013 6.401315,-3.09274 9.153447,-0.91312 3.267487,2.58779 3.550587,7.51858 0.964797,10.70891 -3.002083,3.70395 -8.636767,4.00577 -12.264366,1.01234 -4.139828,-3.41611 -4.46097,-9.75508 -1.05885,-13.81931 3.829943,-4.57531 10.874374,-4.91487 15.374776,-1.10329 5.01052,4.24363 5.36883,11.99298 1.14721,16.9292 l 1.00511,0.85989 c 4.68938,-5.48315 4.29299,-14.06394 -1.2976,-18.79885 -2.52426,-2.13791 -5.755106,-3.11172 -8.89506,-2.90628 z"
       id="path137" />
  </g>
</svg>
